# xmcd CD database file
#
# Track frame offsets:
#	150
#	11095
#	24057
#	36458
#	48080
#	65253
#	76676
#	86504
#	98426
#	111002
#	125122
#	137241
#	148993
#	161866
#
# Disc length: 2322 seconds
#
# Revision: 1
# Processed by: cddbd v1.5.2PL0 Copyright (c) Steve Scherf et al.
# Submitted via: CDex 1.51
#
DISCID=b309100e
DTITLE=AA.VV. - Band in Italy cd 25 - Colori beat
DYEAR=1900
DGENRE=
TTITLE0=Profeti - Bambina sola
TTITLE1=Pooh - Buonanotte Penny
TTITLE2=Ribelli - Nel sole, nel, vento, nel sorriso, nel pianto
TTITLE3=Orme - Fiori e colori
TTITLE4=Stelle di Mario Schifano - Susan song
TTITLE5=Kings - Tu non puoi
TTITLE6=Bisonti - Lucille
TTITLE7=Giganti - Il paese è in festa
TTITLE8=Da Polenta - Il tempo dell'orologio
TTITLE9=Nico e i Gabbiani - Parole
TTITLE10=Faraoni - Lupo mannaro
TTITLE11=Pooh - Mary Ann
TTITLE12=Camaleonti - Non c'è niente di nuovo
TTITLE13=Orme - Milano 1968
EXTD=
EXTT0=
EXTT1=
EXTT2=
EXTT3=
EXTT4=
EXTT5=
EXTT6=
EXTT7=
EXTT8=
EXTT9=
EXTT10=
EXTT11=
EXTT12=
EXTT13=
PLAYORDER=
